<svg width="80" height="84" viewBox="0 0 80 84" fill="none" xmlns="http://www.w3.org/2000/svg">
<rect x="13" y="3" width="53.5" height="57.5" rx="11" fill="white"/>
<rect x="13" y="3" width="53.5" height="57.5" rx="11" stroke="#FFDAD8" stroke-width="2"/>
<g filter="url(#filter0_dd_574_1637)">
<rect x="12" y="2" width="56" height="60" rx="12" fill="white" fill-opacity="0.01" shape-rendering="crispEdges"/>
</g>
<path d="M48.5 26L46.9375 22.5625L43.5 21L46.9375 19.4375L48.5 16L50.0625 19.4375L53.5 21L50.0625 22.5625L48.5 26ZM48.5 43.5L46.9375 40.0625L43.5 38.5L46.9375 36.9375L48.5 33.5L50.0625 36.9375L53.5 38.5L50.0625 40.0625L48.5 43.5ZM36 39.75L32.875 32.875L26 29.75L32.875 26.625L36 19.75L39.125 26.625L46 29.75L39.125 32.875L36 39.75Z" fill="#006A65"/>
<defs>
<filter id="filter0_dd_574_1637" x="0" y="0" width="80" height="84" filterUnits="userSpaceOnUse" color-interpolation-filters="sRGB">
<feFlood flood-opacity="0" result="BackgroundImageFix"/>
<feColorMatrix in="SourceAlpha" type="matrix" values="0 0 0 0 0 0 0 0 0 0 0 0 0 0 0 0 0 0 127 0" result="hardAlpha"/>
<feMorphology radius="4" operator="erode" in="SourceAlpha" result="effect1_dropShadow_574_1637"/>
<feOffset dy="4"/>
<feGaussianBlur stdDeviation="3"/>
<feComposite in2="hardAlpha" operator="out"/>
<feColorMatrix type="matrix" values="0 0 0 0 0 0 0 0 0 0 0 0 0 0 0 0 0 0 0.1 0"/>
<feBlend mode="normal" in2="BackgroundImageFix" result="effect1_dropShadow_574_1637"/>
<feColorMatrix in="SourceAlpha" type="matrix" values="0 0 0 0 0 0 0 0 0 0 0 0 0 0 0 0 0 0 127 0" result="hardAlpha"/>
<feMorphology radius="3" operator="erode" in="SourceAlpha" result="effect2_dropShadow_574_1637"/>
<feOffset dy="10"/>
<feGaussianBlur stdDeviation="7.5"/>
<feComposite in2="hardAlpha" operator="out"/>
<feColorMatrix type="matrix" values="0 0 0 0 0 0 0 0 0 0 0 0 0 0 0 0 0 0 0.1 0"/>
<feBlend mode="normal" in2="effect1_dropShadow_574_1637" result="effect2_dropShadow_574_1637"/>
<feBlend mode="normal" in="SourceGraphic" in2="effect2_dropShadow_574_1637" result="shape"/>
</filter>
</defs>
</svg>
